<svg xmlns="http://www.w3.org/2000/svg" width="100%" viewBox="0 0 729 729"><rect x="0" y="0" width="729" height="729" fill="green"></rect><rect x="243" y="243" width="243" height="243" fill="blue"></rect><rect x="81" y="81" width="81" height="81" fill="blue"></rect><rect x="27" y="27" width="27" height="27" fill="blue"></rect><rect x="9" y="9" width="9" height="9" fill="blue"></rect><rect x="36" y="9" width="9" height="9" fill="blue"></rect><rect x="63" y="9" width="9" height="9" fill="blue"></rect><rect x="9" y="36" width="9" height="9" fill="blue"></rect><rect x="63" y="36" width="9" height="9" fill="blue"></rect><rect x="9" y="63" width="9" height="9" fill="blue"></rect><rect x="36" y="63" width="9" height="9" fill="blue"></rect><rect x="63" y="63" width="9" height="9" fill="blue"></rect><rect x="108" y="27" width="27" height="27" fill="blue"></rect><rect x="90" y="9" width="9" height="9" fill="blue"></rect><rect x="117" y="9" width="9" height="9" fill="blue"></rect><rect x="144" y="9" width="9" height="9" fill="blue"></rect><rect x="90" y="36" width="9" height="9" fill="blue"></rect><rect x="144" y="36" width="9" height="9" fill="blue"></rect><rect x="90" y="63" width="9" height="9" fill="blue"></rect><rect x="117" y="63" width="9" height="9" fill="blue"></rect><rect x="144" y="63" width="9" height="9" fill="blue"></rect><rect x="189" y="27" width="27" height="27" fill="blue"></rect><rect x="171" y="9" width="9" height="9" fill="blue"></rect><rect x="198" y="9" width="9" height="9" fill="blue"></rect><rect x="225" y="9" width="9" height="9" fill="blue"></rect><rect x="171" y="36" width="9" height="9" fill="blue"></rect><rect x="225" y="36" width="9" height="9" fill="blue"></rect><rect x="171" y="63" width="9" height="9" fill="blue"></rect><rect x="198" y="63" width="9" height="9" fill="blue"></rect><rect x="225" y="63" width="9" height="9" fill="blue"></rect><rect x="27" y="108" width="27" height="27" fill="blue"></rect><rect x="9" y="90" width="9" height="9" fill="blue"></rect><rect x="36" y="90" width="9" height="9" fill="blue"></rect><rect x="63" y="90" width="9" height="9" fill="blue"></rect><rect x="9" y="117" width="9" height="9" fill="blue"></rect><rect x="63" y="117" width="9" height="9" fill="blue"></rect><rect x="9" y="144" width="9" height="9" fill="blue"></rect><rect x="36" y="144" width="9" height="9" fill="blue"></rect><rect x="63" y="144" width="9" height="9" fill="blue"></rect><rect x="189" y="108" width="27" height="27" fill="blue"></rect><rect x="171" y="90" width="9" height="9" fill="blue"></rect><rect x="198" y="90" width="9" height="9" fill="blue"></rect><rect x="225" y="90" width="9" height="9" fill="blue"></rect><rect x="171" y="117" width="9" height="9" fill="blue"></rect><rect x="225" y="117" width="9" height="9" fill="blue"></rect><rect x="171" y="144" width="9" height="9" fill="blue"></rect><rect x="198" y="144" width="9" height="9" fill="blue"></rect><rect x="225" y="144" width="9" height="9" fill="blue"></rect><rect x="27" y="189" width="27" height="27" fill="blue"></rect><rect x="9" y="171" width="9" height="9" fill="blue"></rect><rect x="36" y="171" width="9" height="9" fill="blue"></rect><rect x="63" y="171" width="9" height="9" fill="blue"></rect><rect x="9" y="198" width="9" height="9" fill="blue"></rect><rect x="63" y="198" width="9" height="9" fill="blue"></rect><rect x="9" y="225" width="9" height="9" fill="blue"></rect><rect x="36" y="225" width="9" height="9" fill="blue"></rect><rect x="63" y="225" width="9" height="9" fill="blue"></rect><rect x="108" y="189" width="27" height="27" fill="blue"></rect><rect x="90" y="171" width="9" height="9" fill="blue"></rect><rect x="117" y="171" width="9" height="9" fill="blue"></rect><rect x="144" y="171" width="9" height="9" fill="blue"></rect><rect x="90" y="198" width="9" height="9" fill="blue"></rect><rect x="144" y="198" width="9" height="9" fill="blue"></rect><rect x="90" y="225" width="9" height="9" fill="blue"></rect><rect x="117" y="225" width="9" height="9" fill="blue"></rect><rect x="144" y="225" width="9" height="9" fill="blue"></rect><rect x="189" y="189" width="27" height="27" fill="blue"></rect><rect x="171" y="171" width="9" height="9" fill="blue"></rect><rect x="198" y="171" width="9" height="9" fill="blue"></rect><rect x="225" y="171" width="9" height="9" fill="blue"></rect><rect x="171" y="198" width="9" height="9" fill="blue"></rect><rect x="225" y="198" width="9" height="9" fill="blue"></rect><rect x="171" y="225" width="9" height="9" fill="blue"></rect><rect x="198" y="225" width="9" height="9" fill="blue"></rect><rect x="225" y="225" width="9" height="9" fill="blue"></rect><rect x="324" y="81" width="81" height="81" fill="blue"></rect><rect x="270" y="27" width="27" height="27" fill="blue"></rect><rect x="252" y="9" width="9" height="9" fill="blue"></rect><rect x="279" y="9" width="9" height="9" fill="blue"></rect><rect x="306" y="9" width="9" height="9" fill="blue"></rect><rect x="252" y="36" width="9" height="9" fill="blue"></rect><rect x="306" y="36" width="9" height="9" fill="blue"></rect><rect x="252" y="63" width="9" height="9" fill="blue"></rect><rect x="279" y="63" width="9" height="9" fill="blue"></rect><rect x="306" y="63" width="9" height="9" fill="blue"></rect><rect x="351" y="27" width="27" height="27" fill="blue"></rect><rect x="333" y="9" width="9" height="9" fill="blue"></rect><rect x="360" y="9" width="9" height="9" fill="blue"></rect><rect x="387" y="9" width="9" height="9" fill="blue"></rect><rect x="333" y="36" width="9" height="9" fill="blue"></rect><rect x="387" y="36" width="9" height="9" fill="blue"></rect><rect x="333" y="63" width="9" height="9" fill="blue"></rect><rect x="360" y="63" width="9" height="9" fill="blue"></rect><rect x="387" y="63" width="9" height="9" fill="blue"></rect><rect x="432" y="27" width="27" height="27" fill="blue"></rect><rect x="414" y="9" width="9" height="9" fill="blue"></rect><rect x="441" y="9" width="9" height="9" fill="blue"></rect><rect x="468" y="9" width="9" height="9" fill="blue"></rect><rect x="414" y="36" width="9" height="9" fill="blue"></rect><rect x="468" y="36" width="9" height="9" fill="blue"></rect><rect x="414" y="63" width="9" height="9" fill="blue"></rect><rect x="441" y="63" width="9" height="9" fill="blue"></rect><rect x="468" y="63" width="9" height="9" fill="blue"></rect><rect x="270" y="108" width="27" height="27" fill="blue"></rect><rect x="252" y="90" width="9" height="9" fill="blue"></rect><rect x="279" y="90" width="9" height="9" fill="blue"></rect><rect x="306" y="90" width="9" height="9" fill="blue"></rect><rect x="252" y="117" width="9" height="9" fill="blue"></rect><rect x="306" y="117" width="9" height="9" fill="blue"></rect><rect x="252" y="144" width="9" height="9" fill="blue"></rect><rect x="279" y="144" width="9" height="9" fill="blue"></rect><rect x="306" y="144" width="9" height="9" fill="blue"></rect><rect x="432" y="108" width="27" height="27" fill="blue"></rect><rect x="414" y="90" width="9" height="9" fill="blue"></rect><rect x="441" y="90" width="9" height="9" fill="blue"></rect><rect x="468" y="90" width="9" height="9" fill="blue"></rect><rect x="414" y="117" width="9" height="9" fill="blue"></rect><rect x="468" y="117" width="9" height="9" fill="blue"></rect><rect x="414" y="144" width="9" height="9" fill="blue"></rect><rect x="441" y="144" width="9" height="9" fill="blue"></rect><rect x="468" y="144" width="9" height="9" fill="blue"></rect><rect x="270" y="189" width="27" height="27" fill="blue"></rect><rect x="252" y="171" width="9" height="9" fill="blue"></rect><rect x="279" y="171" width="9" height="9" fill="blue"></rect><rect x="306" y="171" width="9" height="9" fill="blue"></rect><rect x="252" y="198" width="9" height="9" fill="blue"></rect><rect x="306" y="198" width="9" height="9" fill="blue"></rect><rect x="252" y="225" width="9" height="9" fill="blue"></rect><rect x="279" y="225" width="9" height="9" fill="blue"></rect><rect x="306" y="225" width="9" height="9" fill="blue"></rect><rect x="351" y="189" width="27" height="27" fill="blue"></rect><rect x="333" y="171" width="9" height="9" fill="blue"></rect><rect x="360" y="171" width="9" height="9" fill="blue"></rect><rect x="387" y="171" width="9" height="9" fill="blue"></rect><rect x="333" y="198" width="9" height="9" fill="blue"></rect><rect x="387" y="198" width="9" height="9" fill="blue"></rect><rect x="333" y="225" width="9" height="9" fill="blue"></rect><rect x="360" y="225" width="9" height="9" fill="blue"></rect><rect x="387" y="225" width="9" height="9" fill="blue"></rect><rect x="432" y="189" width="27" height="27" fill="blue"></rect><rect x="414" y="171" width="9" height="9" fill="blue"></rect><rect x="441" y="171" width="9" height="9" fill="blue"></rect><rect x="468" y="171" width="9" height="9" fill="blue"></rect><rect x="414" y="198" width="9" height="9" fill="blue"></rect><rect x="468" y="198" width="9" height="9" fill="blue"></rect><rect x="414" y="225" width="9" height="9" fill="blue"></rect><rect x="441" y="225" width="9" height="9" fill="blue"></rect><rect x="468" y="225" width="9" height="9" fill="blue"></rect><rect x="567" y="81" width="81" height="81" fill="blue"></rect><rect x="513" y="27" width="27" height="27" fill="blue"></rect><rect x="495" y="9" width="9" height="9" fill="blue"></rect><rect x="522" y="9" width="9" height="9" fill="blue"></rect><rect x="549" y="9" width="9" height="9" fill="blue"></rect><rect x="495" y="36" width="9" height="9" fill="blue"></rect><rect x="549" y="36" width="9" height="9" fill="blue"></rect><rect x="495" y="63" width="9" height="9" fill="blue"></rect><rect x="522" y="63" width="9" height="9" fill="blue"></rect><rect x="549" y="63" width="9" height="9" fill="blue"></rect><rect x="594" y="27" width="27" height="27" fill="blue"></rect><rect x="576" y="9" width="9" height="9" fill="blue"></rect><rect x="603" y="9" width="9" height="9" fill="blue"></rect><rect x="630" y="9" width="9" height="9" fill="blue"></rect><rect x="576" y="36" width="9" height="9" fill="blue"></rect><rect x="630" y="36" width="9" height="9" fill="blue"></rect><rect x="576" y="63" width="9" height="9" fill="blue"></rect><rect x="603" y="63" width="9" height="9" fill="blue"></rect><rect x="630" y="63" width="9" height="9" fill="blue"></rect><rect x="675" y="27" width="27" height="27" fill="blue"></rect><rect x="657" y="9" width="9" height="9" fill="blue"></rect><rect x="684" y="9" width="9" height="9" fill="blue"></rect><rect x="711" y="9" width="9" height="9" fill="blue"></rect><rect x="657" y="36" width="9" height="9" fill="blue"></rect><rect x="711" y="36" width="9" height="9" fill="blue"></rect><rect x="657" y="63" width="9" height="9" fill="blue"></rect><rect x="684" y="63" width="9" height="9" fill="blue"></rect><rect x="711" y="63" width="9" height="9" fill="blue"></rect><rect x="513" y="108" width="27" height="27" fill="blue"></rect><rect x="495" y="90" width="9" height="9" fill="blue"></rect><rect x="522" y="90" width="9" height="9" fill="blue"></rect><rect x="549" y="90" width="9" height="9" fill="blue"></rect><rect x="495" y="117" width="9" height="9" fill="blue"></rect><rect x="549" y="117" width="9" height="9" fill="blue"></rect><rect x="495" y="144" width="9" height="9" fill="blue"></rect><rect x="522" y="144" width="9" height="9" fill="blue"></rect><rect x="549" y="144" width="9" height="9" fill="blue"></rect><rect x="675" y="108" width="27" height="27" fill="blue"></rect><rect x="657" y="90" width="9" height="9" fill="blue"></rect><rect x="684" y="90" width="9" height="9" fill="blue"></rect><rect x="711" y="90" width="9" height="9" fill="blue"></rect><rect x="657" y="117" width="9" height="9" fill="blue"></rect><rect x="711" y="117" width="9" height="9" fill="blue"></rect><rect x="657" y="144" width="9" height="9" fill="blue"></rect><rect x="684" y="144" width="9" height="9" fill="blue"></rect><rect x="711" y="144" width="9" height="9" fill="blue"></rect><rect x="513" y="189" width="27" height="27" fill="blue"></rect><rect x="495" y="171" width="9" height="9" fill="blue"></rect><rect x="522" y="171" width="9" height="9" fill="blue"></rect><rect x="549" y="171" width="9" height="9" fill="blue"></rect><rect x="495" y="198" width="9" height="9" fill="blue"></rect><rect x="549" y="198" width="9" height="9" fill="blue"></rect><rect x="495" y="225" width="9" height="9" fill="blue"></rect><rect x="522" y="225" width="9" height="9" fill="blue"></rect><rect x="549" y="225" width="9" height="9" fill="blue"></rect><rect x="594" y="189" width="27" height="27" fill="blue"></rect><rect x="576" y="171" width="9" height="9" fill="blue"></rect><rect x="603" y="171" width="9" height="9" fill="blue"></rect><rect x="630" y="171" width="9" height="9" fill="blue"></rect><rect x="576" y="198" width="9" height="9" fill="blue"></rect><rect x="630" y="198" width="9" height="9" fill="blue"></rect><rect x="576" y="225" width="9" height="9" fill="blue"></rect><rect x="603" y="225" width="9" height="9" fill="blue"></rect><rect x="630" y="225" width="9" height="9" fill="blue"></rect><rect x="675" y="189" width="27" height="27" fill="blue"></rect><rect x="657" y="171" width="9" height="9" fill="blue"></rect><rect x="684" y="171" width="9" height="9" fill="blue"></rect><rect x="711" y="171" width="9" height="9" fill="blue"></rect><rect x="657" y="198" width="9" height="9" fill="blue"></rect><rect x="711" y="198" width="9" height="9" fill="blue"></rect><rect x="657" y="225" width="9" height="9" fill="blue"></rect><rect x="684" y="225" width="9" height="9" fill="blue"></rect><rect x="711" y="225" width="9" height="9" fill="blue"></rect><rect x="81" y="324" width="81" height="81" fill="blue"></rect><rect x="27" y="270" width="27" height="27" fill="blue"></rect><rect x="9" y="252" width="9" height="9" fill="blue"></rect><rect x="36" y="252" width="9" height="9" fill="blue"></rect><rect x="63" y="252" width="9" height="9" fill="blue"></rect><rect x="9" y="279" width="9" height="9" fill="blue"></rect><rect x="63" y="279" width="9" height="9" fill="blue"></rect><rect x="9" y="306" width="9" height="9" fill="blue"></rect><rect x="36" y="306" width="9" height="9" fill="blue"></rect><rect x="63" y="306" width="9" height="9" fill="blue"></rect><rect x="108" y="270" width="27" height="27" fill="blue"></rect><rect x="90" y="252" width="9" height="9" fill="blue"></rect><rect x="117" y="252" width="9" height="9" fill="blue"></rect><rect x="144" y="252" width="9" height="9" fill="blue"></rect><rect x="90" y="279" width="9" height="9" fill="blue"></rect><rect x="144" y="279" width="9" height="9" fill="blue"></rect><rect x="90" y="306" width="9" height="9" fill="blue"></rect><rect x="117" y="306" width="9" height="9" fill="blue"></rect><rect x="144" y="306" width="9" height="9" fill="blue"></rect><rect x="189" y="270" width="27" height="27" fill="blue"></rect><rect x="171" y="252" width="9" height="9" fill="blue"></rect><rect x="198" y="252" width="9" height="9" fill="blue"></rect><rect x="225" y="252" width="9" height="9" fill="blue"></rect><rect x="171" y="279" width="9" height="9" fill="blue"></rect><rect x="225" y="279" width="9" height="9" fill="blue"></rect><rect x="171" y="306" width="9" height="9" fill="blue"></rect><rect x="198" y="306" width="9" height="9" fill="blue"></rect><rect x="225" y="306" width="9" height="9" fill="blue"></rect><rect x="27" y="351" width="27" height="27" fill="blue"></rect><rect x="9" y="333" width="9" height="9" fill="blue"></rect><rect x="36" y="333" width="9" height="9" fill="blue"></rect><rect x="63" y="333" width="9" height="9" fill="blue"></rect><rect x="9" y="360" width="9" height="9" fill="blue"></rect><rect x="63" y="360" width="9" height="9" fill="blue"></rect><rect x="9" y="387" width="9" height="9" fill="blue"></rect><rect x="36" y="387" width="9" height="9" fill="blue"></rect><rect x="63" y="387" width="9" height="9" fill="blue"></rect><rect x="189" y="351" width="27" height="27" fill="blue"></rect><rect x="171" y="333" width="9" height="9" fill="blue"></rect><rect x="198" y="333" width="9" height="9" fill="blue"></rect><rect x="225" y="333" width="9" height="9" fill="blue"></rect><rect x="171" y="360" width="9" height="9" fill="blue"></rect><rect x="225" y="360" width="9" height="9" fill="blue"></rect><rect x="171" y="387" width="9" height="9" fill="blue"></rect><rect x="198" y="387" width="9" height="9" fill="blue"></rect><rect x="225" y="387" width="9" height="9" fill="blue"></rect><rect x="27" y="432" width="27" height="27" fill="blue"></rect><rect x="9" y="414" width="9" height="9" fill="blue"></rect><rect x="36" y="414" width="9" height="9" fill="blue"></rect><rect x="63" y="414" width="9" height="9" fill="blue"></rect><rect x="9" y="441" width="9" height="9" fill="blue"></rect><rect x="63" y="441" width="9" height="9" fill="blue"></rect><rect x="9" y="468" width="9" height="9" fill="blue"></rect><rect x="36" y="468" width="9" height="9" fill="blue"></rect><rect x="63" y="468" width="9" height="9" fill="blue"></rect><rect x="108" y="432" width="27" height="27" fill="blue"></rect><rect x="90" y="414" width="9" height="9" fill="blue"></rect><rect x="117" y="414" width="9" height="9" fill="blue"></rect><rect x="144" y="414" width="9" height="9" fill="blue"></rect><rect x="90" y="441" width="9" height="9" fill="blue"></rect><rect x="144" y="441" width="9" height="9" fill="blue"></rect><rect x="90" y="468" width="9" height="9" fill="blue"></rect><rect x="117" y="468" width="9" height="9" fill="blue"></rect><rect x="144" y="468" width="9" height="9" fill="blue"></rect><rect x="189" y="432" width="27" height="27" fill="blue"></rect><rect x="171" y="414" width="9" height="9" fill="blue"></rect><rect x="198" y="414" width="9" height="9" fill="blue"></rect><rect x="225" y="414" width="9" height="9" fill="blue"></rect><rect x="171" y="441" width="9" height="9" fill="blue"></rect><rect x="225" y="441" width="9" height="9" fill="blue"></rect><rect x="171" y="468" width="9" height="9" fill="blue"></rect><rect x="198" y="468" width="9" height="9" fill="blue"></rect><rect x="225" y="468" width="9" height="9" fill="blue"></rect><rect x="567" y="324" width="81" height="81" fill="blue"></rect><rect x="513" y="270" width="27" height="27" fill="blue"></rect><rect x="495" y="252" width="9" height="9" fill="blue"></rect><rect x="522" y="252" width="9" height="9" fill="blue"></rect><rect x="549" y="252" width="9" height="9" fill="blue"></rect><rect x="495" y="279" width="9" height="9" fill="blue"></rect><rect x="549" y="279" width="9" height="9" fill="blue"></rect><rect x="495" y="306" width="9" height="9" fill="blue"></rect><rect x="522" y="306" width="9" height="9" fill="blue"></rect><rect x="549" y="306" width="9" height="9" fill="blue"></rect><rect x="594" y="270" width="27" height="27" fill="blue"></rect><rect x="576" y="252" width="9" height="9" fill="blue"></rect><rect x="603" y="252" width="9" height="9" fill="blue"></rect><rect x="630" y="252" width="9" height="9" fill="blue"></rect><rect x="576" y="279" width="9" height="9" fill="blue"></rect><rect x="630" y="279" width="9" height="9" fill="blue"></rect><rect x="576" y="306" width="9" height="9" fill="blue"></rect><rect x="603" y="306" width="9" height="9" fill="blue"></rect><rect x="630" y="306" width="9" height="9" fill="blue"></rect><rect x="675" y="270" width="27" height="27" fill="blue"></rect><rect x="657" y="252" width="9" height="9" fill="blue"></rect><rect x="684" y="252" width="9" height="9" fill="blue"></rect><rect x="711" y="252" width="9" height="9" fill="blue"></rect><rect x="657" y="279" width="9" height="9" fill="blue"></rect><rect x="711" y="279" width="9" height="9" fill="blue"></rect><rect x="657" y="306" width="9" height="9" fill="blue"></rect><rect x="684" y="306" width="9" height="9" fill="blue"></rect><rect x="711" y="306" width="9" height="9" fill="blue"></rect><rect x="513" y="351" width="27" height="27" fill="blue"></rect><rect x="495" y="333" width="9" height="9" fill="blue"></rect><rect x="522" y="333" width="9" height="9" fill="blue"></rect><rect x="549" y="333" width="9" height="9" fill="blue"></rect><rect x="495" y="360" width="9" height="9" fill="blue"></rect><rect x="549" y="360" width="9" height="9" fill="blue"></rect><rect x="495" y="387" width="9" height="9" fill="blue"></rect><rect x="522" y="387" width="9" height="9" fill="blue"></rect><rect x="549" y="387" width="9" height="9" fill="blue"></rect><rect x="675" y="351" width="27" height="27" fill="blue"></rect><rect x="657" y="333" width="9" height="9" fill="blue"></rect><rect x="684" y="333" width="9" height="9" fill="blue"></rect><rect x="711" y="333" width="9" height="9" fill="blue"></rect><rect x="657" y="360" width="9" height="9" fill="blue"></rect><rect x="711" y="360" width="9" height="9" fill="blue"></rect><rect x="657" y="387" width="9" height="9" fill="blue"></rect><rect x="684" y="387" width="9" height="9" fill="blue"></rect><rect x="711" y="387" width="9" height="9" fill="blue"></rect><rect x="513" y="432" width="27" height="27" fill="blue"></rect><rect x="495" y="414" width="9" height="9" fill="blue"></rect><rect x="522" y="414" width="9" height="9" fill="blue"></rect><rect x="549" y="414" width="9" height="9" fill="blue"></rect><rect x="495" y="441" width="9" height="9" fill="blue"></rect><rect x="549" y="441" width="9" height="9" fill="blue"></rect><rect x="495" y="468" width="9" height="9" fill="blue"></rect><rect x="522" y="468" width="9" height="9" fill="blue"></rect><rect x="549" y="468" width="9" height="9" fill="blue"></rect><rect x="594" y="432" width="27" height="27" fill="blue"></rect><rect x="576" y="414" width="9" height="9" fill="blue"></rect><rect x="603" y="414" width="9" height="9" fill="blue"></rect><rect x="630" y="414" width="9" height="9" fill="blue"></rect><rect x="576" y="441" width="9" height="9" fill="blue"></rect><rect x="630" y="441" width="9" height="9" fill="blue"></rect><rect x="576" y="468" width="9" height="9" fill="blue"></rect><rect x="603" y="468" width="9" height="9" fill="blue"></rect><rect x="630" y="468" width="9" height="9" fill="blue"></rect><rect x="675" y="432" width="27" height="27" fill="blue"></rect><rect x="657" y="414" width="9" height="9" fill="blue"></rect><rect x="684" y="414" width="9" height="9" fill="blue"></rect><rect x="711" y="414" width="9" height="9" fill="blue"></rect><rect x="657" y="441" width="9" height="9" fill="blue"></rect><rect x="711" y="441" width="9" height="9" fill="blue"></rect><rect x="657" y="468" width="9" height="9" fill="blue"></rect><rect x="684" y="468" width="9" height="9" fill="blue"></rect><rect x="711" y="468" width="9" height="9" fill="blue"></rect><rect x="81" y="567" width="81" height="81" fill="blue"></rect><rect x="27" y="513" width="27" height="27" fill="blue"></rect><rect x="9" y="495" width="9" height="9" fill="blue"></rect><rect x="36" y="495" width="9" height="9" fill="blue"></rect><rect x="63" y="495" width="9" height="9" fill="blue"></rect><rect x="9" y="522" width="9" height="9" fill="blue"></rect><rect x="63" y="522" width="9" height="9" fill="blue"></rect><rect x="9" y="549" width="9" height="9" fill="blue"></rect><rect x="36" y="549" width="9" height="9" fill="blue"></rect><rect x="63" y="549" width="9" height="9" fill="blue"></rect><rect x="108" y="513" width="27" height="27" fill="blue"></rect><rect x="90" y="495" width="9" height="9" fill="blue"></rect><rect x="117" y="495" width="9" height="9" fill="blue"></rect><rect x="144" y="495" width="9" height="9" fill="blue"></rect><rect x="90" y="522" width="9" height="9" fill="blue"></rect><rect x="144" y="522" width="9" height="9" fill="blue"></rect><rect x="90" y="549" width="9" height="9" fill="blue"></rect><rect x="117" y="549" width="9" height="9" fill="blue"></rect><rect x="144" y="549" width="9" height="9" fill="blue"></rect><rect x="189" y="513" width="27" height="27" fill="blue"></rect><rect x="171" y="495" width="9" height="9" fill="blue"></rect><rect x="198" y="495" width="9" height="9" fill="blue"></rect><rect x="225" y="495" width="9" height="9" fill="blue"></rect><rect x="171" y="522" width="9" height="9" fill="blue"></rect><rect x="225" y="522" width="9" height="9" fill="blue"></rect><rect x="171" y="549" width="9" height="9" fill="blue"></rect><rect x="198" y="549" width="9" height="9" fill="blue"></rect><rect x="225" y="549" width="9" height="9" fill="blue"></rect><rect x="27" y="594" width="27" height="27" fill="blue"></rect><rect x="9" y="576" width="9" height="9" fill="blue"></rect><rect x="36" y="576" width="9" height="9" fill="blue"></rect><rect x="63" y="576" width="9" height="9" fill="blue"></rect><rect x="9" y="603" width="9" height="9" fill="blue"></rect><rect x="63" y="603" width="9" height="9" fill="blue"></rect><rect x="9" y="630" width="9" height="9" fill="blue"></rect><rect x="36" y="630" width="9" height="9" fill="blue"></rect><rect x="63" y="630" width="9" height="9" fill="blue"></rect><rect x="189" y="594" width="27" height="27" fill="blue"></rect><rect x="171" y="576" width="9" height="9" fill="blue"></rect><rect x="198" y="576" width="9" height="9" fill="blue"></rect><rect x="225" y="576" width="9" height="9" fill="blue"></rect><rect x="171" y="603" width="9" height="9" fill="blue"></rect><rect x="225" y="603" width="9" height="9" fill="blue"></rect><rect x="171" y="630" width="9" height="9" fill="blue"></rect><rect x="198" y="630" width="9" height="9" fill="blue"></rect><rect x="225" y="630" width="9" height="9" fill="blue"></rect><rect x="27" y="675" width="27" height="27" fill="blue"></rect><rect x="9" y="657" width="9" height="9" fill="blue"></rect><rect x="36" y="657" width="9" height="9" fill="blue"></rect><rect x="63" y="657" width="9" height="9" fill="blue"></rect><rect x="9" y="684" width="9" height="9" fill="blue"></rect><rect x="63" y="684" width="9" height="9" fill="blue"></rect><rect x="9" y="711" width="9" height="9" fill="blue"></rect><rect x="36" y="711" width="9" height="9" fill="blue"></rect><rect x="63" y="711" width="9" height="9" fill="blue"></rect><rect x="108" y="675" width="27" height="27" fill="blue"></rect><rect x="90" y="657" width="9" height="9" fill="blue"></rect><rect x="117" y="657" width="9" height="9" fill="blue"></rect><rect x="144" y="657" width="9" height="9" fill="blue"></rect><rect x="90" y="684" width="9" height="9" fill="blue"></rect><rect x="144" y="684" width="9" height="9" fill="blue"></rect><rect x="90" y="711" width="9" height="9" fill="blue"></rect><rect x="117" y="711" width="9" height="9" fill="blue"></rect><rect x="144" y="711" width="9" height="9" fill="blue"></rect><rect x="189" y="675" width="27" height="27" fill="blue"></rect><rect x="171" y="657" width="9" height="9" fill="blue"></rect><rect x="198" y="657" width="9" height="9" fill="blue"></rect><rect x="225" y="657" width="9" height="9" fill="blue"></rect><rect x="171" y="684" width="9" height="9" fill="blue"></rect><rect x="225" y="684" width="9" height="9" fill="blue"></rect><rect x="171" y="711" width="9" height="9" fill="blue"></rect><rect x="198" y="711" width="9" height="9" fill="blue"></rect><rect x="225" y="711" width="9" height="9" fill="blue"></rect><rect x="324" y="567" width="81" height="81" fill="blue"></rect><rect x="270" y="513" width="27" height="27" fill="blue"></rect><rect x="252" y="495" width="9" height="9" fill="blue"></rect><rect x="279" y="495" width="9" height="9" fill="blue"></rect><rect x="306" y="495" width="9" height="9" fill="blue"></rect><rect x="252" y="522" width="9" height="9" fill="blue"></rect><rect x="306" y="522" width="9" height="9" fill="blue"></rect><rect x="252" y="549" width="9" height="9" fill="blue"></rect><rect x="279" y="549" width="9" height="9" fill="blue"></rect><rect x="306" y="549" width="9" height="9" fill="blue"></rect><rect x="351" y="513" width="27" height="27" fill="blue"></rect><rect x="333" y="495" width="9" height="9" fill="blue"></rect><rect x="360" y="495" width="9" height="9" fill="blue"></rect><rect x="387" y="495" width="9" height="9" fill="blue"></rect><rect x="333" y="522" width="9" height="9" fill="blue"></rect><rect x="387" y="522" width="9" height="9" fill="blue"></rect><rect x="333" y="549" width="9" height="9" fill="blue"></rect><rect x="360" y="549" width="9" height="9" fill="blue"></rect><rect x="387" y="549" width="9" height="9" fill="blue"></rect><rect x="432" y="513" width="27" height="27" fill="blue"></rect><rect x="414" y="495" width="9" height="9" fill="blue"></rect><rect x="441" y="495" width="9" height="9" fill="blue"></rect><rect x="468" y="495" width="9" height="9" fill="blue"></rect><rect x="414" y="522" width="9" height="9" fill="blue"></rect><rect x="468" y="522" width="9" height="9" fill="blue"></rect><rect x="414" y="549" width="9" height="9" fill="blue"></rect><rect x="441" y="549" width="9" height="9" fill="blue"></rect><rect x="468" y="549" width="9" height="9" fill="blue"></rect><rect x="270" y="594" width="27" height="27" fill="blue"></rect><rect x="252" y="576" width="9" height="9" fill="blue"></rect><rect x="279" y="576" width="9" height="9" fill="blue"></rect><rect x="306" y="576" width="9" height="9" fill="blue"></rect><rect x="252" y="603" width="9" height="9" fill="blue"></rect><rect x="306" y="603" width="9" height="9" fill="blue"></rect><rect x="252" y="630" width="9" height="9" fill="blue"></rect><rect x="279" y="630" width="9" height="9" fill="blue"></rect><rect x="306" y="630" width="9" height="9" fill="blue"></rect><rect x="432" y="594" width="27" height="27" fill="blue"></rect><rect x="414" y="576" width="9" height="9" fill="blue"></rect><rect x="441" y="576" width="9" height="9" fill="blue"></rect><rect x="468" y="576" width="9" height="9" fill="blue"></rect><rect x="414" y="603" width="9" height="9" fill="blue"></rect><rect x="468" y="603" width="9" height="9" fill="blue"></rect><rect x="414" y="630" width="9" height="9" fill="blue"></rect><rect x="441" y="630" width="9" height="9" fill="blue"></rect><rect x="468" y="630" width="9" height="9" fill="blue"></rect><rect x="270" y="675" width="27" height="27" fill="blue"></rect><rect x="252" y="657" width="9" height="9" fill="blue"></rect><rect x="279" y="657" width="9" height="9" fill="blue"></rect><rect x="306" y="657" width="9" height="9" fill="blue"></rect><rect x="252" y="684" width="9" height="9" fill="blue"></rect><rect x="306" y="684" width="9" height="9" fill="blue"></rect><rect x="252" y="711" width="9" height="9" fill="blue"></rect><rect x="279" y="711" width="9" height="9" fill="blue"></rect><rect x="306" y="711" width="9" height="9" fill="blue"></rect><rect x="351" y="675" width="27" height="27" fill="blue"></rect><rect x="333" y="657" width="9" height="9" fill="blue"></rect><rect x="360" y="657" width="9" height="9" fill="blue"></rect><rect x="387" y="657" width="9" height="9" fill="blue"></rect><rect x="333" y="684" width="9" height="9" fill="blue"></rect><rect x="387" y="684" width="9" height="9" fill="blue"></rect><rect x="333" y="711" width="9" height="9" fill="blue"></rect><rect x="360" y="711" width="9" height="9" fill="blue"></rect><rect x="387" y="711" width="9" height="9" fill="blue"></rect><rect x="432" y="675" width="27" height="27" fill="blue"></rect><rect x="414" y="657" width="9" height="9" fill="blue"></rect><rect x="441" y="657" width="9" height="9" fill="blue"></rect><rect x="468" y="657" width="9" height="9" fill="blue"></rect><rect x="414" y="684" width="9" height="9" fill="blue"></rect><rect x="468" y="684" width="9" height="9" fill="blue"></rect><rect x="414" y="711" width="9" height="9" fill="blue"></rect><rect x="441" y="711" width="9" height="9" fill="blue"></rect><rect x="468" y="711" width="9" height="9" fill="blue"></rect><rect x="567" y="567" width="81" height="81" fill="blue"></rect><rect x="513" y="513" width="27" height="27" fill="blue"></rect><rect x="495" y="495" width="9" height="9" fill="blue"></rect><rect x="522" y="495" width="9" height="9" fill="blue"></rect><rect x="549" y="495" width="9" height="9" fill="blue"></rect><rect x="495" y="522" width="9" height="9" fill="blue"></rect><rect x="549" y="522" width="9" height="9" fill="blue"></rect><rect x="495" y="549" width="9" height="9" fill="blue"></rect><rect x="522" y="549" width="9" height="9" fill="blue"></rect><rect x="549" y="549" width="9" height="9" fill="blue"></rect><rect x="594" y="513" width="27" height="27" fill="blue"></rect><rect x="576" y="495" width="9" height="9" fill="blue"></rect><rect x="603" y="495" width="9" height="9" fill="blue"></rect><rect x="630" y="495" width="9" height="9" fill="blue"></rect><rect x="576" y="522" width="9" height="9" fill="blue"></rect><rect x="630" y="522" width="9" height="9" fill="blue"></rect><rect x="576" y="549" width="9" height="9" fill="blue"></rect><rect x="603" y="549" width="9" height="9" fill="blue"></rect><rect x="630" y="549" width="9" height="9" fill="blue"></rect><rect x="675" y="513" width="27" height="27" fill="blue"></rect><rect x="657" y="495" width="9" height="9" fill="blue"></rect><rect x="684" y="495" width="9" height="9" fill="blue"></rect><rect x="711" y="495" width="9" height="9" fill="blue"></rect><rect x="657" y="522" width="9" height="9" fill="blue"></rect><rect x="711" y="522" width="9" height="9" fill="blue"></rect><rect x="657" y="549" width="9" height="9" fill="blue"></rect><rect x="684" y="549" width="9" height="9" fill="blue"></rect><rect x="711" y="549" width="9" height="9" fill="blue"></rect><rect x="513" y="594" width="27" height="27" fill="blue"></rect><rect x="495" y="576" width="9" height="9" fill="blue"></rect><rect x="522" y="576" width="9" height="9" fill="blue"></rect><rect x="549" y="576" width="9" height="9" fill="blue"></rect><rect x="495" y="603" width="9" height="9" fill="blue"></rect><rect x="549" y="603" width="9" height="9" fill="blue"></rect><rect x="495" y="630" width="9" height="9" fill="blue"></rect><rect x="522" y="630" width="9" height="9" fill="blue"></rect><rect x="549" y="630" width="9" height="9" fill="blue"></rect><rect x="675" y="594" width="27" height="27" fill="blue"></rect><rect x="657" y="576" width="9" height="9" fill="blue"></rect><rect x="684" y="576" width="9" height="9" fill="blue"></rect><rect x="711" y="576" width="9" height="9" fill="blue"></rect><rect x="657" y="603" width="9" height="9" fill="blue"></rect><rect x="711" y="603" width="9" height="9" fill="blue"></rect><rect x="657" y="630" width="9" height="9" fill="blue"></rect><rect x="684" y="630" width="9" height="9" fill="blue"></rect><rect x="711" y="630" width="9" height="9" fill="blue"></rect><rect x="513" y="675" width="27" height="27" fill="blue"></rect><rect x="495" y="657" width="9" height="9" fill="blue"></rect><rect x="522" y="657" width="9" height="9" fill="blue"></rect><rect x="549" y="657" width="9" height="9" fill="blue"></rect><rect x="495" y="684" width="9" height="9" fill="blue"></rect><rect x="549" y="684" width="9" height="9" fill="blue"></rect><rect x="495" y="711" width="9" height="9" fill="blue"></rect><rect x="522" y="711" width="9" height="9" fill="blue"></rect><rect x="549" y="711" width="9" height="9" fill="blue"></rect><rect x="594" y="675" width="27" height="27" fill="blue"></rect><rect x="576" y="657" width="9" height="9" fill="blue"></rect><rect x="603" y="657" width="9" height="9" fill="blue"></rect><rect x="630" y="657" width="9" height="9" fill="blue"></rect><rect x="576" y="684" width="9" height="9" fill="blue"></rect><rect x="630" y="684" width="9" height="9" fill="blue"></rect><rect x="576" y="711" width="9" height="9" fill="blue"></rect><rect x="603" y="711" width="9" height="9" fill="blue"></rect><rect x="630" y="711" width="9" height="9" fill="blue"></rect><rect x="675" y="675" width="27" height="27" fill="blue"></rect><rect x="657" y="657" width="9" height="9" fill="blue"></rect><rect x="684" y="657" width="9" height="9" fill="blue"></rect><rect x="711" y="657" width="9" height="9" fill="blue"></rect><rect x="657" y="684" width="9" height="9" fill="blue"></rect><rect x="711" y="684" width="9" height="9" fill="blue"></rect><rect x="657" y="711" width="9" height="9" fill="blue"></rect><rect x="684" y="711" width="9" height="9" fill="blue"></rect><rect x="711" y="711" width="9" height="9" fill="blue"></rect></svg>