<svg xmlns="http://www.w3.org/2000/svg" width="100%" viewBox="0 0 729 729">
	<rect x="0" y="0" width="729" height="729" fill="green">
	</rect>
	<rect x="243" y="243" width="243" height="243" fill="blue">
	</rect>
	<rect x="81" y="81" width="81" height="81" fill="blue">
	</rect>
	<rect x="27" y="27" width="27" height="27" fill="blue">
	</rect>
	<rect x="108" y="27" width="27" height="27" fill="blue">
	</rect>
	<rect x="189" y="27" width="27" height="27" fill="blue">
	</rect>
	<rect x="27" y="108" width="27" height="27" fill="blue">
	</rect>
	<rect x="189" y="108" width="27" height="27" fill="blue">
	</rect>
	<rect x="27" y="189" width="27" height="27" fill="blue">
	</rect>
	<rect x="108" y="189" width="27" height="27" fill="blue">
	</rect>
	<rect x="189" y="189" width="27" height="27" fill="blue">
	</rect>
	<rect x="324" y="81" width="81" height="81" fill="blue">
	</rect>
	<rect x="270" y="27" width="27" height="27" fill="blue">
	</rect>
	<rect x="351" y="27" width="27" height="27" fill="blue">
	</rect>
	<rect x="432" y="27" width="27" height="27" fill="blue">
	</rect>
	<rect x="270" y="108" width="27" height="27" fill="blue">
	</rect>
	<rect x="432" y="108" width="27" height="27" fill="blue">
	</rect>
	<rect x="270" y="189" width="27" height="27" fill="blue">
	</rect>
	<rect x="351" y="189" width="27" height="27" fill="blue">
	</rect>
	<rect x="432" y="189" width="27" height="27" fill="blue">
	</rect>
	<rect x="567" y="81" width="81" height="81" fill="blue">
	</rect>
	<rect x="513" y="27" width="27" height="27" fill="blue">
	</rect>
	<rect x="594" y="27" width="27" height="27" fill="blue">
	</rect>
	<rect x="675" y="27" width="27" height="27" fill="blue">
	</rect>
	<rect x="513" y="108" width="27" height="27" fill="blue">
	</rect>
	<rect x="675" y="108" width="27" height="27" fill="blue">
	</rect>
	<rect x="513" y="189" width="27" height="27" fill="blue">
	</rect>
	<rect x="594" y="189" width="27" height="27" fill="blue">
	</rect>
	<rect x="675" y="189" width="27" height="27" fill="blue">
	</rect>
	<rect x="81" y="324" width="81" height="81" fill="blue">
	</rect>
	<rect x="27" y="270" width="27" height="27" fill="blue">
	</rect>
	<rect x="108" y="270" width="27" height="27" fill="blue">
	</rect>
	<rect x="189" y="270" width="27" height="27" fill="blue">
	</rect>
	<rect x="27" y="351" width="27" height="27" fill="blue">
	</rect>
	<rect x="189" y="351" width="27" height="27" fill="blue">
	</rect>
	<rect x="27" y="432" width="27" height="27" fill="blue">
	</rect>
	<rect x="108" y="432" width="27" height="27" fill="blue">
	</rect>
	<rect x="189" y="432" width="27" height="27" fill="blue">
	</rect>
	<rect x="567" y="324" width="81" height="81" fill="blue">
	</rect>
	<rect x="513" y="270" width="27" height="27" fill="blue">
	</rect>
	<rect x="594" y="270" width="27" height="27" fill="blue">
	</rect>
	<rect x="675" y="270" width="27" height="27" fill="blue">
	</rect>
	<rect x="513" y="351" width="27" height="27" fill="blue">
	</rect>
	<rect x="675" y="351" width="27" height="27" fill="blue">
	</rect>
	<rect x="513" y="432" width="27" height="27" fill="blue">
	</rect>
	<rect x="594" y="432" width="27" height="27" fill="blue">
	</rect>
	<rect x="675" y="432" width="27" height="27" fill="blue">
	</rect>
	<rect x="81" y="567" width="81" height="81" fill="blue">
	</rect>
	<rect x="27" y="513" width="27" height="27" fill="blue">
	</rect>
	<rect x="108" y="513" width="27" height="27" fill="blue">
	</rect>
	<rect x="189" y="513" width="27" height="27" fill="blue">
	</rect>
	<rect x="27" y="594" width="27" height="27" fill="blue">
	</rect>
	<rect x="189" y="594" width="27" height="27" fill="blue">
	</rect>
	<rect x="27" y="675" width="27" height="27" fill="blue">
	</rect>
	<rect x="108" y="675" width="27" height="27" fill="blue">
	</rect>
	<rect x="189" y="675" width="27" height="27" fill="blue">
	</rect>
	<rect x="324" y="567" width="81" height="81" fill="blue">
	</rect>
	<rect x="270" y="513" width="27" height="27" fill="blue">
	</rect>
	<rect x="351" y="513" width="27" height="27" fill="blue">
	</rect>
	<rect x="432" y="513" width="27" height="27" fill="blue">
	</rect>
	<rect x="270" y="594" width="27" height="27" fill="blue">
	</rect>
	<rect x="432" y="594" width="27" height="27" fill="blue">
	</rect>
	<rect x="270" y="675" width="27" height="27" fill="blue">
	</rect>
	<rect x="351" y="675" width="27" height="27" fill="blue">
	</rect>
	<rect x="432" y="675" width="27" height="27" fill="blue">
	</rect>
	<rect x="567" y="567" width="81" height="81" fill="blue">
	</rect>
	<rect x="513" y="513" width="27" height="27" fill="blue">
	</rect>
	<rect x="594" y="513" width="27" height="27" fill="blue">
	</rect>
	<rect x="675" y="513" width="27" height="27" fill="blue">
	</rect>
	<rect x="513" y="594" width="27" height="27" fill="blue">
	</rect>
	<rect x="675" y="594" width="27" height="27" fill="blue">
	</rect>
	<rect x="513" y="675" width="27" height="27" fill="blue">
	</rect>
	<rect x="594" y="675" width="27" height="27" fill="blue">
	</rect>
	<rect x="675" y="675" width="27" height="27" fill="blue">
	</rect>
</svg>
